<?xml version="1.0" encoding="utf-8"?>
<!-- Generator: Adobe Illustrator 27.5.0, SVG Export Plug-In . SVG Version: 6.00 Build 0)  -->
<svg version="1.1" id="Layer_1" xmlns="http://www.w3.org/2000/svg" xmlns:xlink="http://www.w3.org/1999/xlink" x="0px" y="0px"
	 viewBox="0 0 1112.3 316.4" style="enable-background:new 0 0 1112.3 316.4;" xml:space="preserve">
<style type="text/css">
	.st0{fill:#EB5368;}
	.st1{fill:#280A05;}
</style>
<g>
	<path class="st0" d="M121.3,300.6l-85.5-44.4c-8-4.1-13-12.4-13-21.4V35.9c0-18.1,19.2-29.8,35.2-21.4l85.5,44.4
		c8,4.1,13,12.4,13,21.4v198.9C156.6,297.3,137.4,308.9,121.3,300.6L121.3,300.6z"/>
	<path class="st0" d="M200.1,300.6l-85.5-44.4c-8-4.1-13-12.4-13-21.4V35.9c0-18.1,19.2-29.8,35.3-21.4l85.5,44.4
		c8,4.1,13,12.4,13,21.4v198.9C235.3,297.3,216.2,308.9,200.1,300.6z"/>
	<path class="st1" d="M156.6,80.3V278l-42-21.8c-8-4.1-13-12.4-13-21.4V37l42,21.8C151.6,63,156.6,71.3,156.6,80.3z"/>
	<path class="st0" d="M314.1,144.1v135c0,18.1-19.2,29.8-35.3,21.4l-85.5-44.4c-8-4.1-13-12.4-13-21.4V35.9
		c0-18.1,19.2-29.8,35.3-21.4l28.8,15c1.7,0.9,3.4,1.8,5,2.7c35.7,20.6,59.4,56.9,63.9,97.6C313.8,134.5,314.1,139.3,314.1,144.1
		L314.1,144.1z"/>
	<path class="st1" d="M235.3,80.3V278l-42-21.8c-8-4.1-13-12.4-13-21.4V37l42,21.8C230.3,63,235.3,71.3,235.3,80.3z"/>
	<path class="st1" d="M313.3,129.7c-13.4-16.4-54.3-17.3-54.3-17.3c10.1-42.7-4-71.2-9.6-80.3C285.1,52.7,308.7,89.1,313.3,129.7z"
		/>
	<path class="st1" d="M317.4,139.5c0-0.2,0-0.4-0.1-0.7C317.4,139.1,317.4,139.3,317.4,139.5z"/>
</g>
<g>
	<path class="st1" d="M390,142.5l46.3-125.7h16l46.2,125.7h-16L471,110.2h-53.5l-11.7,32.3H390L390,142.5z M422,98h44.5l-22.3-62.1
		L422,98L422,98z"/>
	<path class="st1" d="M516.3,142.5V13.3h15.1V91l36.5-37.5h18.5l-39.5,40.2l44.5,48.8h-19.2l-40.8-46.2v46.2H516.3z"/>
	<path class="st1" d="M635.7,144.7c-7.4,0-13.6-1.3-18.5-3.8c-4.9-2.5-8.6-5.9-11-10c-2.4-4.2-3.6-8.7-3.6-13.7
		c0-9.1,3.5-16.1,10.4-21c6.9-4.9,16.4-7.4,28.4-7.4h24.1v-1.1c0-7.8-2-13.7-6.1-17.7c-4.1-4-9.5-6-16.3-6c-5.9,0-10.9,1.5-15.2,4.4
		c-4.2,2.9-6.9,7.2-8,12.8h-15.4c0.6-6.5,2.8-11.9,6.5-16.3c3.8-4.4,8.5-7.8,14.1-10.1c5.6-2.3,11.6-3.5,18-3.5
		c12.5,0,21.8,3.3,28.1,10c6.3,6.6,9.4,15.5,9.4,26.5v54.8h-13.5l-0.9-16c-2.5,5-6.2,9.3-11,12.8
		C650.3,142.9,643.9,144.7,635.7,144.7L635.7,144.7z M638,131.9c5.8,0,10.7-1.5,14.8-4.5c4.1-3,7.3-6.9,9.4-11.7
		c2.2-4.8,3.2-9.8,3.2-15.1v-0.2h-22.8c-8.9,0-15.1,1.5-18.8,4.6s-5.5,6.9-5.5,11.4s1.7,8.4,5.1,11.2
		C627,130.5,631.8,131.9,638,131.9z"/>
	<path class="st1" d="M743.6,144.7c-8.9,0-16.6-2-23.2-6.1c-6.6-4.1-11.8-9.6-15.4-16.7c-3.7-7.1-5.5-15.1-5.5-24.1s1.8-17,5.6-24
		c3.7-7,8.9-12.5,15.4-16.5c6.6-4,14.4-6,23.3-6c7.3,0,13.8,1.5,19.4,4.5c5.6,3,10,7.2,13.1,12.6V13.3h15.1v129.3h-13.7l-1.4-14.7
		c-2.9,4.3-7,8.2-12.4,11.7S751.7,144.7,743.6,144.7L743.6,144.7z M745.2,131.6c6,0,11.3-1.4,15.9-4.2c4.6-2.8,8.2-6.7,10.8-11.8
		s3.9-10.9,3.9-17.6s-1.3-12.6-3.9-17.6c-2.6-5-6.2-8.9-10.8-11.8c-4.6-2.8-9.9-4.2-15.9-4.2s-11.1,1.4-15.7,4.2
		c-4.6,2.8-8.2,6.7-10.8,11.8c-2.6,5-3.9,10.9-3.9,17.6c0,6.7,1.3,12.6,3.9,17.6s6.2,9,10.8,11.8
		C734.1,130.2,739.3,131.6,745.2,131.6z"/>
	<path class="st1" d="M856,144.7c-8.5,0-16-2-22.6-5.8c-6.6-3.9-11.8-9.3-15.5-16.3c-3.8-6.9-5.7-15.1-5.7-24.6s1.8-17.5,5.6-24.5
		c3.7-7,8.9-12.4,15.5-16.3s14.3-5.8,23.1-5.8s16.1,1.9,22.4,5.8c6.3,3.9,11.1,9,14.4,15.4c3.3,6.4,5,13.2,5,20.5
		c0,1.3,0,2.6-0.1,3.9c-0.1,1.3-0.1,2.8-0.1,4.5h-70.9c0.4,6.8,1.9,12.5,4.8,17c2.8,4.5,6.3,7.9,10.6,10.1c4.2,2.3,8.8,3.4,13.6,3.4
		c6.2,0,11.4-1.4,15.6-4.3c4.2-2.9,7.2-6.8,9.2-11.7h14.9c-2.4,8.3-7,15.1-13.7,20.6C875.2,142,866.5,144.7,856,144.7L856,144.7z
		 M856,64.1c-7.2,0-13.6,2.2-19.1,6.6c-5.6,4.4-8.8,10.8-9.6,19.1h56c-0.4-8-3.1-14.3-8.3-18.9S863.5,64.1,856,64.1L856,64.1z"/>
	<path class="st1" d="M918.1,142.5V53.5h13.7l1.1,12.9c2.9-4.8,6.7-8.5,11.5-11.1s10.2-3.9,16.2-3.9c7.1,0,13.1,1.4,18.2,4.3
		c5.1,2.9,9,7.2,11.8,13.1c3.1-5.4,7.4-9.6,12.8-12.7c5.4-3.1,11.3-4.7,17.7-4.7c10.7,0,19.2,3.2,25.5,9.6
		c6.3,6.4,9.5,16.2,9.5,29.5v52.1h-14.9V92.1c0-9.2-1.9-16.2-5.6-20.8s-9-7-16-7c-6.9,0-13.1,2.8-17.9,8.4s-7.1,13.5-7.1,23.8v46.2
		h-15.1V92.1c0-9.2-1.9-16.2-5.6-20.8s-9-7-16-7s-13,2.8-17.7,8.4s-7.1,13.5-7.1,23.8v46.2L918.1,142.5L918.1,142.5z"/>
	<path class="st1" d="M1088,33.7c-3,0-5.5-1-7.4-3c-2-2-3-4.5-3-7.4s1-5.3,3-7.2c2-1.9,4.5-2.9,7.4-2.9s5.3,1,7.4,2.9
		c2,1.9,3.1,4.3,3.1,7.2s-1,5.5-3.1,7.4C1093.3,32.7,1090.9,33.7,1088,33.7z M1080.4,142.5V53.5h15.1v89.1H1080.4z"/>
</g>
<g>
	<path class="st1" d="M390.6,301.9V176.3h27.3l40,79.7l39.5-79.7h27.3v125.7h-23v-86.7l-35,68.8h-18.1l-35-68.8v86.7H390.6
		L390.6,301.9z"/>
	<path class="st1" d="M579.4,304.1c-7.7,0-14-1.2-18.8-3.7c-4.9-2.5-8.6-5.7-11-9.8c-2.4-4.1-3.6-8.6-3.6-13.5
		c0-8.3,3.2-15,9.7-20.1c6.5-5.1,16.2-7.7,29.1-7.7h22.6v-2.2c0-6.1-1.7-10.6-5.2-13.5c-3.5-2.9-7.8-4.3-12.9-4.3
		c-4.7,0-8.7,1.1-12.2,3.3c-3.5,2.2-5.6,5.5-6.5,9.8h-22.4c0.6-6.5,2.8-12.1,6.5-16.9c3.8-4.8,8.7-8.5,14.6-11s12.7-3.9,20.1-3.9
		c12.7,0,22.7,3.2,30,9.5c7.3,6.4,11,15.3,11,26.9v54.8h-19.6l-2.2-14.4c-2.6,4.8-6.3,8.7-11,11.9
		C592.9,302.5,586.8,304.1,579.4,304.1L579.4,304.1z M584.6,286.1c6.6,0,11.7-2.2,15.3-6.5c3.7-4.3,6-9.6,6.9-16h-19.6
		c-6.1,0-10.5,1.1-13.1,3.3c-2.6,2.2-4,4.9-4,8.2c0,3.5,1.3,6.2,4,8.1C576.8,285.2,580.2,286.1,584.6,286.1L584.6,286.1z"/>
	<path class="st1" d="M652.3,301.9v-89.1h20.5l2.2,16.7c3.2-5.8,7.6-10.3,13.2-13.7c5.6-3.4,12.1-5.1,19.7-5.1V235h-6.5
		c-5,0-9.5,0.8-13.5,2.3c-4,1.6-7,4.2-9.2,8.1s-3.3,9.2-3.3,16v40.6L652.3,301.9L652.3,301.9z"/>
	<path class="st1" d="M735.7,199.1c-4.2,0-7.6-1.3-10.3-3.8c-2.7-2.5-4-5.7-4-9.5s1.3-7,4-9.4c2.7-2.5,6.1-3.7,10.3-3.7
		s7.6,1.2,10.3,3.7c2.7,2.5,4,5.6,4,9.4s-1.3,7-4,9.5C743.4,197.8,739.9,199.1,735.7,199.1z M724.3,301.9v-89.1h23v89.1H724.3z"/>
	<path class="st1" d="M814.9,304.1c-9.1,0-17.1-2-24.1-5.9s-12.4-9.5-16.4-16.5s-6-15.1-6-24.2s2-17.2,6-24.2s9.5-12.6,16.4-16.5
		c6.9-4,15-5.9,24.1-5.9c11.4,0,21,3,28.7,8.9c7.8,5.9,12.8,14.1,14.9,24.5h-24.2c-1.2-4.3-3.6-7.7-7.1-10.1s-7.7-3.7-12.5-3.7
		c-6.3,0-11.7,2.4-16.2,7.2c-4.4,4.8-6.6,11.4-6.6,19.9s2.2,15.1,6.6,19.9c4.4,4.8,9.8,7.2,16.2,7.2c4.8,0,9-1.2,12.5-3.6
		c3.5-2.4,5.9-5.8,7.1-10.2h24.2c-2.2,10.1-7.1,18.1-14.9,24.2C835.9,301.1,826.3,304.1,814.9,304.1L814.9,304.1z"/>
	<path class="st1" d="M909.7,304.1c-7.7,0-13.9-1.2-18.8-3.7c-4.9-2.5-8.6-5.7-11-9.8c-2.4-4.1-3.6-8.6-3.6-13.5
		c0-8.3,3.2-15,9.7-20.1c6.5-5.1,16.2-7.7,29.1-7.7h22.6v-2.2c0-6.1-1.7-10.6-5.2-13.5c-3.5-2.9-7.8-4.3-12.9-4.3
		c-4.7,0-8.7,1.1-12.2,3.3c-3.5,2.2-5.6,5.5-6.5,9.8h-22.4c0.6-6.5,2.8-12.1,6.5-16.9c3.8-4.8,8.7-8.5,14.6-11s12.7-3.9,20.1-3.9
		c12.7,0,22.7,3.2,30,9.5c7.3,6.4,10.9,15.3,10.9,26.9v54.8h-19.6l-2.2-14.4c-2.6,4.8-6.3,8.7-11,11.9
		C923.2,302.5,917.2,304.1,909.7,304.1L909.7,304.1z M914.9,286.1c6.6,0,11.7-2.2,15.3-6.5c3.7-4.3,5.9-9.6,6.9-16h-19.6
		c-6.1,0-10.5,1.1-13.1,3.3c-2.6,2.2-3.9,4.9-3.9,8.2c0,3.5,1.3,6.2,3.9,8.1C907.2,285.2,910.6,286.1,914.9,286.1L914.9,286.1z"/>
</g>
</svg>
