<?xml version="1.0" encoding="UTF-8"?>
<svg id="Layer_1" data-name="Layer 1" xmlns="http://www.w3.org/2000/svg" viewBox="0 0 653.2 653.2">
  <defs>
    <style>
      .cls-1 {
        fill: #eb5368;
      }

      .cls-2 {
        fill: #280a05;
      }
    </style>
  </defs>
  <path class="cls-1" d="m258.05,527.53l-120.02-62.37c-11.22-5.83-18.26-17.42-18.26-30.07V155.74c0-25.42,26.95-41.79,49.51-30.07l120.02,62.37c11.22,5.83,18.26,17.42,18.26,30.07v279.35c0,25.42-26.95,41.79-49.51,30.07Z"/>
  <path class="cls-1" d="m368.65,527.53l-120.02-62.37c-11.22-5.83-18.26-17.42-18.26-30.07V155.74c0-25.42,26.95-41.79,49.51-30.07l120.02,62.37c11.22,5.83,18.26,17.42,18.26,30.07v279.35c0,25.42-26.95,41.79-49.51,30.07Z"/>
  <path class="cls-2" d="m307.54,218.1v277.68l-58.94-30.64c-11.19-5.81-18.24-17.43-18.24-30.07V157.4l58.94,30.64c11.19,5.84,18.24,17.43,18.24,30.07Z"/>
  <path class="cls-1" d="m528.76,307.81v189.64c0,25.44-26.95,41.79-49.52,30.07l-120.02-62.37c-11.23-5.83-18.25-17.42-18.25-30.07V155.74c0-25.41,26.95-41.79,49.52-30.07l40.41,21.01c2.37,1.22,4.7,2.51,6.98,3.84,50.19,28.91,83.35,79.94,89.75,137.03.75,6.69,1.13,13.44,1.13,20.26Z"/>
  <path class="cls-2" d="m418.14,218.1v277.68l-58.94-30.64c-11.19-5.81-18.24-17.43-18.24-30.07V157.4l58.94,30.64c11.19,5.84,18.24,17.43,18.24,30.07Z"/>
  <path class="cls-2" d="m527.63,287.55c-18.84-23.09-76.22-24.24-76.22-24.24,14.16-59.93-5.65-99.94-13.53-112.79,50.19,28.91,83.35,79.94,89.75,137.03Z"/>
  <path class="cls-2" d="m533.43,301.31c-.02-.32-.05-.61-.09-.93.05.38.07.68.09.93Z"/>
</svg>