<svg id="Layer_2" data-name="Layer 2" xmlns="http://www.w3.org/2000/svg" xmlns:xlink="http://www.w3.org/1999/xlink" viewBox="0 0 1080 1080"><defs><style>.cls-1,.cls-34,.cls-35{fill:none;}.cls-2{fill:url(#linear-gradient);}.cls-3{fill:url(#linear-gradient-2);}.cls-4{fill:url(#linear-gradient-3);}.cls-5{fill:url(#linear-gradient-5);}.cls-6{fill:url(#linear-gradient-6);}.cls-7{fill:url(#linear-gradient-7);}.cls-8{fill:url(#linear-gradient-8);}.cls-9{fill:url(#linear-gradient-9);}.cls-10{fill:url(#linear-gradient-10);}.cls-11{fill:url(#linear-gradient-11);}.cls-12{fill:url(#linear-gradient-12);}.cls-13{fill:url(#linear-gradient-13);}.cls-14{fill:url(#linear-gradient-14);}.cls-15{fill:url(#linear-gradient-15);}.cls-16{fill:url(#linear-gradient-16);}.cls-17{clip-path:url(#clip-path);}.cls-18{fill:url(#linear-gradient-17);}.cls-19{fill:url(#linear-gradient-18);}.cls-20{fill:url(#linear-gradient-19);}.cls-21{fill:url(#linear-gradient-20);}.cls-22{fill:url(#linear-gradient-21);}.cls-23{fill:url(#linear-gradient-22);}.cls-24{fill:url(#linear-gradient-23);}.cls-25{fill:url(#linear-gradient-24);}.cls-26{fill:url(#linear-gradient-25);}.cls-27{fill:url(#linear-gradient-26);}.cls-28{fill:url(#linear-gradient-27);}.cls-29{fill:url(#linear-gradient-28);}.cls-30{fill:url(#linear-gradient-29);}.cls-31{fill:url(#linear-gradient-30);}.cls-32{fill:url(#linear-gradient-31);}.cls-33{fill:url(#linear-gradient-32);}.cls-34,.cls-35{stroke-linecap:round;stroke-linejoin:round;}.cls-34{stroke-width:7px;stroke:url(#linear-gradient-33);}.cls-35{stroke:#d15e78;stroke-width:4px;}.cls-36{fill:url(#linear-gradient-34);}.cls-37{fill:url(#linear-gradient-35);}.cls-38{fill:url(#linear-gradient-36);}.cls-39{fill:url(#linear-gradient-37);}.cls-40{fill:url(#linear-gradient-38);}.cls-41{fill:url(#linear-gradient-39);}.cls-42{fill:url(#linear-gradient-40);}.cls-43{fill:url(#linear-gradient-41);}.cls-44{fill:url(#linear-gradient-42);}</style><linearGradient id="linear-gradient" x1="634.64" y1="632.08" x2="243.22" y2="822.68" gradientUnits="userSpaceOnUse"><stop offset="0" stop-color="#f7d7e3"/><stop offset="0.11" stop-color="#f6cedc"/><stop offset="0.48" stop-color="#f4b4c8"/><stop offset="0.7" stop-color="#f3aac1"/></linearGradient><linearGradient id="linear-gradient-2" x1="630.21" y1="160.96" x2="427.8" y2="380.32" gradientUnits="userSpaceOnUse"><stop offset="0.18" stop-color="#f7d7e3"/><stop offset="0.28" stop-color="#f6cedc"/><stop offset="0.59" stop-color="#f4b4c8"/><stop offset="0.78" stop-color="#f3aac1"/></linearGradient><linearGradient id="linear-gradient-3" x1="658.68" y1="127.07" x2="405.14" y2="376.81" gradientUnits="userSpaceOnUse"><stop offset="0" stop-color="#f9e8ef"/><stop offset="0.45" stop-color="#f9e6ee"/><stop offset="0.62" stop-color="#f8dfe8"/><stop offset="0.73" stop-color="#f7d4e0"/><stop offset="0.83" stop-color="#f5c3d3"/><stop offset="0.89" stop-color="#f4b3c7"/></linearGradient><linearGradient id="linear-gradient-5" x1="544.99" y1="192.44" x2="478.17" y2="256.32" gradientUnits="userSpaceOnUse"><stop offset="0" stop-color="#ab3852"/><stop offset="0.04" stop-color="#b03d57"/><stop offset="0.2" stop-color="#c5526c"/><stop offset="0.39" stop-color="#d3607a"/><stop offset="0.62" stop-color="#db6882"/><stop offset="1" stop-color="#de6b85"/></linearGradient><linearGradient id="linear-gradient-6" x1="595.54" y1="192.44" x2="528.72" y2="256.32" xlink:href="#linear-gradient"/><linearGradient id="linear-gradient-7" x1="544.99" y1="240.4" x2="478.17" y2="304.28" xlink:href="#linear-gradient"/><linearGradient id="linear-gradient-8" x1="595.54" y1="240.4" x2="528.72" y2="304.28" xlink:href="#linear-gradient-5"/><linearGradient id="linear-gradient-9" x1="543.43" y1="315.03" x2="536.48" y2="171.21" gradientUnits="userSpaceOnUse"><stop offset="0.05" stop-color="#ab3852"/><stop offset="0.08" stop-color="#b03d57" stop-opacity="0.91"/><stop offset="0.18" stop-color="#be4b65" stop-opacity="0.64"/><stop offset="0.29" stop-color="#c95670" stop-opacity="0.41"/><stop offset="0.39" stop-color="#d25f79" stop-opacity="0.23"/><stop offset="0.49" stop-color="#d96680" stop-opacity="0.1"/><stop offset="0.59" stop-color="#dd6a84" stop-opacity="0.03"/><stop offset="0.68" stop-color="#de6b85" stop-opacity="0"/></linearGradient><linearGradient id="linear-gradient-10" x1="732.05" y1="225.68" x2="529.63" y2="445.04" gradientTransform="translate(2.45 -13.11)" xlink:href="#linear-gradient-2"/><linearGradient id="linear-gradient-11" x1="760.52" y1="191.79" x2="506.98" y2="441.53" gradientTransform="translate(8.11 -11.98)" xlink:href="#linear-gradient-5"/><linearGradient id="linear-gradient-12" x1="448.01" y1="554.23" x2="394.65" y2="612.07" gradientTransform="translate(-56.88 465.96) rotate(-67.4)" xlink:href="#linear-gradient-2"/><linearGradient id="linear-gradient-13" x1="645.27" y1="379.75" x2="638.32" y2="235.93" gradientTransform="translate(8.11 -11.98)" xlink:href="#linear-gradient-9"/><linearGradient id="linear-gradient-14" x1="518.54" y1="204.79" x2="316.13" y2="424.15" xlink:href="#linear-gradient-2"/><linearGradient id="linear-gradient-15" x1="547.01" y1="170.9" x2="293.47" y2="420.64" gradientTransform="translate(-5.82 1.2)" xlink:href="#linear-gradient-5"/><linearGradient id="linear-gradient-16" x1="427.01" y1="252.22" x2="405.21" y2="275.85" gradientTransform="translate(-84.61 193.46) rotate(-23.23)" xlink:href="#linear-gradient-2"/><clipPath id="clip-path"><rect class="cls-1" x="367.03" y="237.11" width="110.96" height="103.78" rx="6.32" transform="translate(-79.73 190.07) rotate(-23.23)"/></clipPath><linearGradient id="linear-gradient-17" x1="493.44" y1="288.71" x2="399.7" y2="390.3" gradientTransform="translate(-84.61 193.46) rotate(-23.23)" gradientUnits="userSpaceOnUse"><stop offset="0.18" stop-color="#f7d7e3"/><stop offset="0.25" stop-color="#f6cedc"/><stop offset="0.46" stop-color="#f4b4c8"/><stop offset="0.6" stop-color="#f3aac1"/></linearGradient><linearGradient id="linear-gradient-18" x1="436.38" y1="296.99" x2="355.98" y2="384.12" gradientTransform="translate(-84.61 193.46) rotate(-23.23)" xlink:href="#linear-gradient-2"/><linearGradient id="linear-gradient-19" x1="431.76" y1="358.86" x2="424.81" y2="215.04" gradientTransform="translate(-5.82 1.2)" xlink:href="#linear-gradient-9"/><linearGradient id="linear-gradient-20" x1="442.48" y1="871.1" x2="642.91" y2="184.15" gradientUnits="userSpaceOnUse"><stop offset="0" stop-color="#f9e8ef"/><stop offset="0.43" stop-color="#f9e6ee"/><stop offset="0.58" stop-color="#f8dfe8"/><stop offset="0.69" stop-color="#f7d4e0"/><stop offset="0.78" stop-color="#f5c3d3"/><stop offset="0.83" stop-color="#f4b3c7"/></linearGradient><linearGradient id="linear-gradient-21" x1="358.3" y1="617.23" x2="764.5" y2="240.52" gradientUnits="userSpaceOnUse"><stop offset="0.22" stop-color="#de6b85"/><stop offset="0.49" stop-color="#e6839c"/><stop offset="0.96" stop-color="#f4a8c0"/></linearGradient><linearGradient id="linear-gradient-22" x1="461.62" y1="305.71" x2="625.47" y2="484.96" xlink:href="#linear-gradient-5"/><linearGradient id="linear-gradient-23" x1="766.76" y1="547.35" x2="705.84" y2="629.06" xlink:href="#linear-gradient-5"/><linearGradient id="linear-gradient-24" x1="372.53" y1="344.93" x2="599.45" y2="356.55" xlink:href="#linear-gradient-3"/><linearGradient id="linear-gradient-25" x1="386.47" y1="448.97" x2="603.24" y2="460.07" xlink:href="#linear-gradient"/><linearGradient id="linear-gradient-26" x1="391.78" y1="500.06" x2="555.19" y2="508.43" xlink:href="#linear-gradient"/><linearGradient id="linear-gradient-27" x1="725.62" y1="376.44" x2="563.03" y2="594.54" xlink:href="#linear-gradient"/><linearGradient id="linear-gradient-28" x1="612.72" y1="415.36" x2="715.66" y2="522.98" gradientUnits="userSpaceOnUse"><stop offset="0" stop-color="#fff"/><stop offset="0.18" stop-color="#fff" stop-opacity="0.74"/><stop offset="0.42" stop-color="#fff" stop-opacity="0.42"/><stop offset="0.61" stop-color="#fff" stop-opacity="0.2"/><stop offset="0.75" stop-color="#fff" stop-opacity="0.05"/><stop offset="0.83" stop-color="#fff" stop-opacity="0"/></linearGradient><linearGradient id="linear-gradient-29" x1="788.46" y1="583.7" x2="741.22" y2="647.07" gradientUnits="userSpaceOnUse"><stop offset="0.27" stop-color="#f7d7e3"/><stop offset="0.34" stop-color="#f6cedc"/><stop offset="0.56" stop-color="#f4b4c8"/><stop offset="0.7" stop-color="#f3aac1"/></linearGradient><linearGradient id="linear-gradient-30" x1="246.94" y1="687.11" x2="277.69" y2="687.11" gradientUnits="userSpaceOnUse"><stop offset="0.18" stop-color="#f7d7e3"/><stop offset="0.36" stop-color="#f6cfdd"/><stop offset="0.64" stop-color="#f4bacd"/><stop offset="0.81" stop-color="#f3aac1"/></linearGradient><linearGradient id="linear-gradient-31" x1="627.68" y1="456.91" x2="647.11" y2="438.89" xlink:href="#linear-gradient-21"/><linearGradient id="linear-gradient-32" x1="680.17" y1="456.91" x2="699.61" y2="438.89" xlink:href="#linear-gradient-21"/><linearGradient id="linear-gradient-33" x1="632.86" y1="481.66" x2="690.87" y2="481.66" gradientUnits="userSpaceOnUse"><stop offset="0.05" stop-color="#ab3852"/><stop offset="1" stop-color="#de6b85"/></linearGradient><linearGradient id="linear-gradient-34" x1="261.37" y1="608.3" x2="263.36" y2="687.4" xlink:href="#linear-gradient"/><linearGradient id="linear-gradient-35" x1="352.22" y1="757.12" x2="396.07" y2="757.12" xlink:href="#linear-gradient-30"/><linearGradient id="linear-gradient-36" x1="372.86" y1="631.83" x2="374.35" y2="708.94" gradientUnits="userSpaceOnUse"><stop offset="0" stop-color="#f7d7e3"/><stop offset="0.15" stop-color="#f6cedc"/><stop offset="0.63" stop-color="#f4b4c8"/><stop offset="0.92" stop-color="#f3aac1"/></linearGradient><linearGradient id="linear-gradient-37" x1="710" y1="731.77" x2="753.85" y2="731.77" xlink:href="#linear-gradient-30"/><linearGradient id="linear-gradient-38" x1="730.94" y1="625.64" x2="733.11" y2="729.66" xlink:href="#linear-gradient"/><linearGradient id="linear-gradient-39" x1="302.86" y1="405.02" x2="299.83" y2="342.21" xlink:href="#linear-gradient"/><linearGradient id="linear-gradient-40" x1="791.81" y1="461.66" x2="790.04" y2="425.07" xlink:href="#linear-gradient"/><linearGradient id="linear-gradient-41" x1="800.62" y1="308" x2="706.59" y2="408.49" gradientUnits="userSpaceOnUse"><stop offset="0.21" stop-color="#ab3852"/><stop offset="0.23" stop-color="#b03d57"/><stop offset="0.37" stop-color="#c5526c"/><stop offset="0.52" stop-color="#d3607a"/><stop offset="0.7" stop-color="#db6882"/><stop offset="1" stop-color="#de6b85"/></linearGradient><linearGradient id="linear-gradient-42" x1="306.5" y1="470.2" x2="356.52" y2="470.2" xlink:href="#linear-gradient-33"/></defs><title>Aset Aplikasi</title><ellipse class="cls-2" cx="536.31" cy="679.97" rx="107.98" ry="19.45"/><rect class="cls-3" x="472.07" y="177.13" width="135.87" height="163.18" rx="8.77"/><rect class="cls-4" x="484.52" y="192.09" width="110.96" height="103.78" rx="6.32"/><rect class="cls-4" x="484.52" y="192.09" width="110.96" height="103.78" rx="6.32"/><rect class="cls-5" x="493.28" y="200.51" width="43.75" height="40.91" rx="6.32"/><rect class="cls-6" x="543.83" y="200.51" width="43.75" height="40.91" rx="6.32"/><rect class="cls-7" x="493.28" y="248.46" width="43.75" height="40.91" rx="6.32"/><rect class="cls-8" x="543.83" y="248.46" width="43.75" height="40.91" rx="6.32"/><rect class="cls-9" x="484.52" y="192.09" width="110.96" height="103.78" rx="6.32"/><rect class="cls-10" x="576.35" y="228.74" width="135.87" height="163.18" rx="8.77" transform="translate(168.7 -223.73) rotate(22.6)"/><rect class="cls-11" x="594.47" y="244.83" width="110.96" height="103.78" rx="6.32" transform="translate(163.9 -226.95) rotate(22.6)"/><path class="cls-12" d="M630.88,291.61l9.46-22.72a3,3,0,0,1,5.12-.67l14.95,19.56,15,19.55a3,3,0,0,1-2,4.77L649,315.27l-24.41,3.18a3,3,0,0,1-3.14-4.11Z"/><rect class="cls-13" x="594.47" y="244.83" width="110.96" height="103.78" rx="6.32" transform="translate(163.9 -226.95) rotate(22.6)"/><rect class="cls-14" x="360.4" y="220.96" width="135.87" height="163.18" rx="8.77" transform="translate(-84.61 193.46) rotate(-23.23)"/><rect class="cls-15" x="367.03" y="237.11" width="110.96" height="103.78" rx="6.32" transform="translate(-79.73 190.07) rotate(-23.23)"/><circle class="cls-16" cx="402.49" cy="270.33" r="11.03"/><g class="cls-17"><path class="cls-18" d="M414.73,355.77,431.16,268a5.72,5.72,0,0,1,8.68-3.78l76.08,48.14Z"/><path class="cls-19" d="M375.08,372.79,389,298.42a5.71,5.71,0,0,1,8.67-3.78l64.46,40.79Z"/></g><rect class="cls-20" x="367.03" y="237.11" width="110.96" height="103.78" rx="6.32" transform="translate(-79.73 190.07) rotate(-23.23)"/><path class="cls-21" d="M895.29,668.22C821.39,640.05,683.7,621.11,526,621.11c-153.88,0-288.75,18-363.84,45.1C130,520.58,158.11,454.13,220.69,443.58c59-9.94,50.95,91.46,148.22,93.71s113.76-93.71,193.9-93.71,132.6,69.9,170.71,86S826,482.84,872.23,516.85C905.1,541,900.62,622.92,895.29,668.22Z"/><path class="cls-22" d="M677,366l-1.13,35.27-5.71,178.5A10.14,10.14,0,0,1,660,589.64H398.91a10.15,10.15,0,0,1-10.17-9.94l-3.89-178.39-1.29-58.79a10.17,10.17,0,0,1,10.17-10.38H563.37a10.16,10.16,0,0,1,8.4,4.45l9.87,14.51a10.14,10.14,0,0,0,8.4,4.45h76.83A10.15,10.15,0,0,1,677,366Z"/><path class="cls-23" d="M677,366l-1.13,35.27h-291l-1.29-58.79a10.17,10.17,0,0,1,10.17-10.38H563.37a10.16,10.16,0,0,1,8.4,4.45l9.87,14.51a10.14,10.14,0,0,0,8.4,4.45h76.83A10.15,10.15,0,0,1,677,366Z"/><path class="cls-24" d="M793.85,614.57l-25,18.88a5.9,5.9,0,0,1-8.36-1.27L742.42,607l-41.19-57.49a15.6,15.6,0,0,1,24.21-19.59l48,52.67,21.25,23.33A5.92,5.92,0,0,1,793.85,614.57Z"/><path class="cls-25" d="M557.35,358H399.64a2.49,2.49,0,0,1-2.47-2.09l-1.73-10.33a2.51,2.51,0,0,1,2.47-2.92H555.57a2.49,2.49,0,0,1,2.46,2.08l1.79,10.34A2.5,2.5,0,0,1,557.35,358Z"/><rect class="cls-26" x="408.46" y="443.58" width="156.81" height="21.06" rx="2.91"/><rect class="cls-27" x="408.46" y="493.41" width="118.02" height="21.06" rx="2.91"/><path class="cls-28" d="M659.87,382.4a82.25,82.25,0,1,0,82.25,82.25A82.25,82.25,0,0,0,659.87,382.4Zm0,142.38A60.14,60.14,0,1,1,720,464.65,60.13,60.13,0,0,1,659.87,524.78Z"/><path class="cls-29" d="M720,464.65a60.13,60.13,0,1,1-60.13-60.14A60.13,60.13,0,0,1,720,464.65Z"/><path class="cls-30" d="M793.85,614.57l-25,18.88a5.9,5.9,0,0,1-8.36-1.27L742.42,607l31-24.41,21.25,23.33A5.92,5.92,0,0,1,793.85,614.57Z"/><ellipse class="cls-31" cx="262.32" cy="687.11" rx="15.37" ry="7.15"/><circle class="cls-32" cx="635.62" cy="449.55" r="8.66"/><circle class="cls-33" cx="688.11" cy="449.55" r="8.66"/><path class="cls-34" d="M636.36,494.41a25.51,25.51,0,1,1,51,0"/><line class="cls-35" x1="262.32" y1="639.99" x2="262.32" y2="686.39"/><rect class="cls-36" x="237.67" y="621.25" width="49.29" height="49.29" rx="7.79"/><ellipse class="cls-37" cx="374.14" cy="757.12" rx="21.92" ry="10.2"/><line class="cls-35" x1="374.14" y1="689.9" x2="374.14" y2="756.08"/><rect class="cls-38" x="339" y="663.19" width="70.3" height="70.3" rx="11.12"/><ellipse class="cls-39" cx="731.93" cy="731.77" rx="21.92" ry="10.2"/><line class="cls-35" x1="731.93" y1="664.55" x2="731.93" y2="730.73"/><rect class="cls-40" x="696.78" y="637.84" width="70.3" height="70.3" rx="11.12"/><circle class="cls-41" cx="301.36" cy="373.99" r="23.68"/><circle class="cls-42" cx="790.93" cy="443.58" r="13.79"/><circle class="cls-43" cx="753.85" cy="357.98" r="24.47"/><path class="cls-44" d="M338.58,470.2l16.47-16.47a5,5,0,0,0-7.07-7.07l-16.47,16.47L315,446.66a5,5,0,0,0-7.07,7.07l16.47,16.47L308,486.67a5,5,0,1,0,7.07,7.07l16.47-16.47L348,493.74a5,5,0,0,0,7.07-7.07Z"/></svg>