<svg id="Layer_2" data-name="Layer 2" xmlns="http://www.w3.org/2000/svg" xmlns:xlink="http://www.w3.org/1999/xlink" viewBox="0 0 1080 1080"><defs><style>.cls-1{fill:url(#linear-gradient);}.cls-2{fill:url(#linear-gradient-2);}.cls-3{fill:url(#linear-gradient-3);}</style><linearGradient id="linear-gradient" x1="227.65" y1="19.41" x2="729.83" y2="856.38" gradientUnits="userSpaceOnUse"><stop offset="0" stop-color="#f9e8ef"/><stop offset="0.45" stop-color="#f9e6ee"/><stop offset="0.62" stop-color="#f8dfe8"/><stop offset="0.73" stop-color="#f7d4e0"/><stop offset="0.83" stop-color="#f5c3d3"/><stop offset="0.89" stop-color="#f4b3c7"/></linearGradient><linearGradient id="linear-gradient-2" x1="448.03" y1="651.84" x2="635.93" y2="294.38" gradientUnits="userSpaceOnUse"><stop offset="0.26" stop-color="#de6b85"/><stop offset="0.42" stop-color="#e6819b"/><stop offset="0.62" stop-color="#ee97af"/><stop offset="0.82" stop-color="#f2a4bc"/><stop offset="1" stop-color="#f4a8c0"/></linearGradient><linearGradient id="linear-gradient-3" x1="636.66" y1="571.81" x2="309.14" y2="1273.64" xlink:href="#linear-gradient-2"/></defs><title>Aset Aplikasi</title><path class="cls-1" d="M885.62,540A345.62,345.62,0,0,1,290.3,779a348.07,348.07,0,0,1-34.1-41.67A343.92,343.92,0,0,1,194.38,540c0-190.87,154.74-345.62,345.61-345.62S885.62,349.13,885.62,540Z"/><circle class="cls-2" cx="540" cy="476.87" r="129.05"/><path class="cls-3" d="M789.68,779a345.59,345.59,0,0,1-499.38,0,326.82,326.82,0,0,1,499.38,0Z"/></svg>